<svg xmlns="http://www.w3.org/2000/svg" viewBox="0 0 1125 812" width="1125" height="812">
  <defs>
    <filter id="shadow"><feDropShadow dx="0" dy="1" stdDeviation="3" flood-color="#3A3F42" flood-opacity="0.08"/></filter>
  </defs>
  <rect width="1125" height="812" fill="#DDE0E3"/>

  <!-- Screen 2: One-sentence input -->
  <rect x="25" y="15" width="345" height="782" rx="16" fill="#F5F6F7"/>
  <rect x="25" y="15" width="345" height="44" fill="#F5F6F7"/>
  <text x="198" y="43" font-family="Inter" font-size="14" font-weight="600" fill="#3A3F42" text-anchor="middle">第2屏</text>
  <circle cx="198" cy="260" r="40" fill="#A0B0C4"/>
  <text x="198" y="274" font-family="Inter" font-size="28" fill="#FFF" text-anchor="middle">✏️</text>
  <text x="198" y="330" font-family="Inter" font-size="18" font-weight="600" fill="#3A3F42" text-anchor="middle">一句话开始</text>
  <text x="198" y="356" font-family="Inter" font-size="13" fill="#9CA3AF" text-anchor="middle">试着写下最近一次重要交流</text>
  <rect x="55" y="386" width="285" height="60" rx="12" fill="#FFF" filter="url(#shadow)"/>
  <text x="75" y="416" font-family="Inter" font-size="13" fill="#9CA3AF">例如：6月18日和张三聊了AI合作...</text>
  <rect x="55" y="470" width="285" height="48" rx="10" fill="#A0C4A8"/>
  <text x="198" y="500" font-family="Inter" font-size="15" font-weight="600" fill="#FFF" text-anchor="middle">下一步</text>
  
  <!-- Progress dots -->
  <circle cx="183" cy="740" r="5" fill="#A0C4A8"/><circle cx="198" cy="740" r="7" fill="#A0C4A8"/><circle cx="216" cy="740" r="5" fill="#DDE0E3"/>

  <!-- Screen 3: Confirm focus -->
  <rect x="390" y="15" width="345" height="782" rx="16" fill="#F5F6F7"/>
  <rect x="390" y="15" width="345" height="44" fill="#F5F6F7"/>
  <text x="563" y="43" font-family="Inter" font-size="14" font-weight="600" fill="#3A3F42" text-anchor="middle">第3屏</text>
  <circle cx="563" cy="260" r="40" fill="#A0C4A8"/>
  <text x="563" y="274" font-family="Inter" font-size="28" fill="#FFF" text-anchor="middle">🤖</text>
  <text x="563" y="330" font-family="Inter" font-size="18" font-weight="600" fill="#3A3F42" text-anchor="middle">我理解了这些</text>
  <text x="563" y="356" font-family="Inter" font-size="13" fill="#9CA3AF" text-anchor="middle">确认我提取的重点是否正确</text>
  
  <rect x="420" y="386" width="285" height="140" rx="12" fill="#FFF" filter="url(#shadow)"/>
  <text x="440" y="412" font-family="Inter" font-size="11" fill="#9CA3AF">识别的人物</text>
  <rect x="440" y="422" width="245" height="28" rx="6" fill="#F5F6F7"/>
  <text x="450" y="442" font-family="Inter" font-size="13" font-weight="600" fill="#3A3F42">张三 · AI产品总监</text>
  <text x="440" y="472" font-family="Inter" font-size="11" fill="#9CA3AF">提取的承诺</text>
  <rect x="440" y="482" width="245" height="28" rx="6" fill="#FFF3F0"/>
  <text x="450" y="502" font-family="Inter" font-size="13" fill="#C4A7A0">📌 本周发AI合作方案</text>
  
  <rect x="420" y="546" width="285" height="48" rx="10" fill="#A0C4A8"/>
  <text x="563" y="576" font-family="Inter" font-size="15" font-weight="600" fill="#FFF" text-anchor="middle">确认，继续</text>
  <rect x="420" y="606" width="285" height="36" rx="8" fill="transparent"/>
  <text x="563" y="630" font-family="Inter" font-size="13" fill="#9CA3AF" text-anchor="middle">修改</text>
  
  <circle cx="548" cy="740" r="5" fill="#A0C4A8"/><circle cx="563" cy="740" r="5" fill="#A0C4A8"/><circle cx="581" cy="740" r="7" fill="#A0C4A8"/>

  <!-- Screen 4: Value realization -->
  <rect x="755" y="15" width="345" height="782" rx="16" fill="#F5F6F7"/>
  <rect x="755" y="15" width="345" height="44" fill="#F5F6F7"/>
  <text x="928" y="43" font-family="Inter" font-size="14" font-weight="600" fill="#3A3F42" text-anchor="middle">第4屏</text>
  <circle cx="928" cy="240" r="40" fill="#B0A0C4"/>
  <text x="928" y="254" font-family="Inter" font-size="28" fill="#FFF" text-anchor="middle">✅</text>
  <text x="928" y="310" font-family="Inter" font-size="20" font-weight="600" fill="#3A3F42" text-anchor="middle">准备就绪</text>
  <text x="928" y="340" font-family="Inter" font-size="14" fill="#6B7280" text-anchor="middle">PromiseLink 会帮你在对的时刻</text>
  <text x="928" y="364" font-family="Inter" font-size="14" fill="#6B7280" text-anchor="middle">想起对的人和事</text>
  
  <rect x="785" y="400" width="285" height="52" rx="12" fill="#FFF" filter="url(#shadow)"/>
  <text x="805" y="424" font-family="Inter" font-size="13" fill="#3A3F42">📌 明天发方案给张三</text>
  <text x="940" y="424" font-family="Inter" font-size="11" fill="#9CA3AF" text-anchor="end">明天提醒</text>
  <text x="805" y="444" font-family="Inter" font-size="11" fill="#6B7280">承诺 · 6月22日截止</text>
  
  <rect x="785" y="466" width="285" height="52" rx="12" fill="#FFF" filter="url(#shadow)"/>
  <text x="805" y="490" font-family="Inter" font-size="13" fill="#3A3F42">💙 关注张三AI应用落地</text>
  <text x="940" y="490" font-family="Inter" font-size="11" fill="#9CA3AF" text-anchor="end">下次见面时</text>
  <text x="805" y="510" font-family="Inter" font-size="11" fill="#6B7280">关心 · 持续关注</text>
  
  <rect x="785" y="540" width="285" height="48" rx="10" fill="#A0C4A8"/>
  <text x="928" y="570" font-family="Inter" font-size="15" font-weight="600" fill="#FFF" text-anchor="middle">开始使用</text>
  
  <circle cx="918" cy="740" r="5" fill="#A0C4A8"/><circle cx="928" cy="740" r="5" fill="#A0C4A8"/><circle cx="938" cy="740" r="7" fill="#A0C4A8"/>
</svg>